<?xml version="1.0" standalone="no"?>
<!DOCTYPE svg PUBLIC "-//W3C//DTD SVG 20010904//EN"
 "http://www.w3.org/TR/2001/REC-SVG-20010904/DTD/svg10.dtd">
<svg version="1.0" xmlns="http://www.w3.org/2000/svg"
 width="189.000000pt" height="192.000000pt" viewBox="0 0 189.000000 192.000000"
 preserveAspectRatio="xMidYMid meet">

<g transform="translate(0.000000,192.000000) scale(0.100000,-0.100000)"
fill="#000000" stroke="none">
<path d="M25 1749 c-4 -12 -1 -41 5 -65 14 -48 72 -109 115 -120 17 -4 31 -20
44 -48 37 -83 98 -116 212 -116 l69 0 0 -265 0 -265 40 0 40 0 0 265 0 265
589 0 c523 0 591 -2 605 -16 24 -23 22 -282 -2 -341 -21 -51 -252 -312 -303
-342 -36 -20 -47 -21 -457 -21 -297 0 -429 -3 -446 -12 -39 -17 -58 -55 -64
-124 -4 -55 -7 -63 -28 -68 -30 -8 -82 -52 -98 -85 -62 -124 22 -271 156 -271
82 0 140 36 179 112 l19 38 150 0 150 0 24 -49 c30 -59 80 -92 146 -99 65 -6
112 12 154 58 72 80 68 187 -11 262 -50 47 -114 60 -184 37 -44 -15 -96 -64
-111 -106 l-12 -33 -156 0 -156 0 -12 34 c-15 41 -84 106 -112 106 -18 0 -20
7 -20 55 0 43 4 56 19 65 13 6 168 10 435 10 406 0 417 1 462 22 35 16 82 61
189 180 174 194 175 196 175 412 0 166 -11 209 -60 233 -19 10 -163 13 -611
13 -441 0 -588 3 -597 12 -7 7 -12 43 -12 93 0 99 -13 148 -47 175 -24 19 -39
20 -249 20 -218 0 -223 0 -229 -21z m443 -91 l3 -38 -138 0 c-149 0 -191 11
-221 58 l-15 22 184 -2 184 -3 3 -37z m2 -148 l0 -40 -69 0 c-54 0 -75 5 -102
23 -19 12 -35 30 -37 40 -3 15 8 17 102 17 l106 0 0 -40z m90 -1105 c42 -21
60 -53 60 -103 0 -37 -6 -50 -34 -78 -48 -48 -104 -48 -152 0 -28 28 -34 42
-34 76 0 52 13 76 53 100 38 24 68 25 107 5z m680 0 c66 -34 82 -120 32 -176
-40 -45 -106 -52 -149 -15 -66 55 -62 143 9 186 39 24 69 25 108 5z"/>
<path d="M476 347 c-38 -28 -13 -97 34 -97 28 0 53 25 53 55 0 30 -25 55 -53
55 -9 0 -24 -6 -34 -13z"/>
<path d="M1158 348 c-31 -24 -27 -74 7 -90 38 -17 75 3 75 41 0 51 -45 77 -82
49z"/>
<path d="M780 1055 l0 -185 70 0 70 0 0 185 0 185 -70 0 -70 0 0 -185z"/>
<path d="M1080 1055 l0 -185 70 0 70 0 0 185 0 185 -70 0 -70 0 0 -185z"/>
<path d="M1380 1058 l0 -182 70 69 70 69 0 113 0 113 -70 0 -70 0 0 -182z"/>
</g>
</svg>
